# xmcd CD database file
#
# Track frame offsets:
#	150
#	16594
#	34990
#	49405
#	66100
#	81685
#	96372
#	108069
#	125416
#	137171
#	156046
#	175620
#	192356
#	203589
#	220642
#	244775
#	259687
#
# Disc length: 3630 seconds
#
# Revision: 0
# Processed by: cddbd v1.5.2PL0 Copyright (c) Steve Scherf et al.
# Submitted via: Feurio! 1.68 - http://www.feurio.com
#
DISCID=e80e2c11
DTITLE=Chris Thomas King - 60 Minutes King Blues
DYEAR=1900
DGENRE=Blues
TTITLE0=Alive
TTITLE1=Trouble Will Soon Be Over
TTITLE2=Me, My Guitar And The Blues
TTITLE3=Canned Heat Blues
TTITLE4=Hoodoo Party
TTITLE5=Dark Cloud
TTITLE6=Hard Time Killing Floor Blue
TTITLE7=Superstitious Blues
TTITLE8=Hard Time Killing Floor Blues
TTITLE9=John Law Burned Down The Liquor Sto'
TTITLE10=Come On In My Kitchen
TTITLE11=Stones In My Passway
TTITLE12=Gambling Woman
TTITLE13=Soon This Morning Blues
TTITLE14=Death Leather Blues
TTITLE15=Why Blues
TTITLE16=Wanna Die With A Smile On My Face
EXTD=
EXTT0=
EXTT1=
EXTT2=
EXTT3=
EXTT4=
EXTT5=
EXTT6=
EXTT7=
EXTT8=
EXTT9=
EXTT10=
EXTT11=
EXTT12=
EXTT13=
EXTT14=
EXTT15=
EXTT16=
PLAYORDER=
